<?xml version="1.0" encoding="utf-8"?>
<!-- Generator: Adobe Illustrator 17.1.0, SVG Export Plug-In . SVG Version: 6.00 Build 0)  -->
<!DOCTYPE svg PUBLIC "-//W3C//DTD SVG 1.1//EN" "http://www.w3.org/Graphics/SVG/1.1/DTD/svg11.dtd">
<svg version="1.1" id="Warstwa_1" xmlns="http://www.w3.org/2000/svg" xmlns:xlink="http://www.w3.org/1999/xlink" x="0px" y="0px"
	 viewBox="0 0 86 86" enable-background="new 0 0 86 86" xml:space="preserve">
<g>
	<defs>
		<rect id="SVGID_3_" width="86" height="86"/>
	</defs>
	<clipPath id="SVGID_2_">
		<use xlink:href="#SVGID_3_"  overflow="visible"/>
	</clipPath>
	<path clip-path="url(#SVGID_2_)" fill="#164B9C" d="M43,10.5v65c3.7-2,7.3-4.3,11-6.4l13.6-8l4.8-40.1C62.6,17.5,52.8,14,43,10.5"
		/>
	<path clip-path="url(#SVGID_2_)" fill="#3473BA" d="M43,10.5v65c-3.7-2-7.3-4.3-11-6.4c-4.5-2.7-9.1-5.3-13.6-8l-4.8-40.1
		C23.4,17.5,33.2,14,43,10.5"/>
	<path clip-path="url(#SVGID_2_)" fill="#FFFFFF" d="M36.3,38H46c1.4,0,2.6-0.4,3.6-1.2c1-0.8,1.4-2,1.4-3.5c0-1.7-0.4-2.9-1.3-3.6
		c-0.9-0.7-2.1-1.1-3.7-1.1h-9.7L36.3,38L36.3,38z M30.3,23.8h16.5c3,0,5.5,0.7,7.3,2.1c1.8,1.4,2.7,3.5,2.7,6.3
		c0,1.7-0.4,3.2-1.3,4.4c-0.8,1.2-2,2.1-3.6,2.8v0.1c2.1,0.4,3.7,1.4,4.7,3c1.1,1.5,1.6,3.4,1.6,5.8c0,1.3-0.2,2.6-0.7,3.8
		c-0.5,1.1-1.2,2.1-2.2,3c-1,0.8-2.3,1.5-3.9,2c-1.6,0.5-3.5,0.7-5.6,0.7H30.3V23.8L30.3,23.8z M36.3,52.9h10.5
		c1.8,0,3.2-0.5,4.2-1.4c1-1,1.5-2.3,1.5-4c0-1.7-0.5-3-1.5-3.9c-1-0.9-2.4-1.4-4.2-1.4H36.3V52.9z"/>
</g>
<rect x="0" fill="none" width="86" height="86"/>
</svg>
