<?xml version="1.0" encoding="utf-8"?>
<!-- Generator: Adobe Illustrator 16.0.0, SVG Export Plug-In . SVG Version: 6.00 Build 0)  -->
<!DOCTYPE svg PUBLIC "-//W3C//DTD SVG 1.1 Tiny//EN" "http://www.w3.org/Graphics/SVG/1.1/DTD/svg11-tiny.dtd">
<svg version="1.1" baseProfile="tiny" id="Layer_1" xmlns="http://www.w3.org/2000/svg" xmlns:xlink="http://www.w3.org/1999/xlink"
	 x="0px" y="0px" width="200px" height="200px" viewBox="47.508 81 635.048 635.577" overflow="scroll"
	 xml:space="preserve">
<g>
	<path fill-rule="evenodd" fill="#EE5033" d="M374.507,81c-1.061,2.238,0.995,2.062,2.013,2.37c7.279,2.2,13.17,6.495,18.467,11.803
		c91.444,91.634,182.935,183.223,274.329,274.907c17.586,17.642,17.706,42.144,0.05,59.867
		c-91.367,91.711-182.893,183.265-274.314,274.92c-5.028,5.041-11.265,7.969-17.396,11.171c-0.148,0.078-0.306,0.491-0.255,0.539
		c0.268,0.263,0.6,0.458,0.91,0.678c-8.45,0-16.898,0-25.349,0c0.312-0.217,0.879-0.435,0.877-0.651
		c0-0.353-0.292-0.903-0.598-1.026c-6.94-2.779-13.006-6.759-18.327-12.094c-91.127-91.372-182.301-182.697-273.489-274.009
		c-4.84-4.846-8.818-10.191-11.276-16.634c-0.42-1.102,0.007-3.595-2.64-2.306c0-8.027,0-16.055,0-24.081
		c0.293,0.412,0.29,1.306,1.188,0.734c0.171-0.109,0.421-0.199,0.485-0.358c2.684-6.715,6.218-12.822,11.411-18.015
		c61.813-61.831,123.597-123.689,185.256-185.671c3.247-3.263,4.784-2.905,7.785,0.143c21.191,21.514,42.517,42.898,63.981,64.139
		c2.945,2.915,3.55,5.304,2.373,9.278c-6.578,22.206,2.808,45.051,23.104,56.168c3.624,1.985,4.987,3.979,4.974,8.188
		c-0.165,54.483-0.151,108.969-0.018,163.452c0.009,3.848-1.035,5.84-4.518,7.787c-16.909,9.448-25.676,24.204-25.64,43.505
		c0.043,22.757,17.004,42.838,38.788,46.999c23.493,4.487,46.116-7.744,54.858-29.661c8.691-21.789,1.061-46.087-18.829-58.856
		c-3.465-2.225-4.729-4.479-4.719-8.559c0.138-53.43,0.083-106.857,0.134-160.287c0.001-1.73-0.802-3.755,1.06-5.357
		c20.849,20.734,41.606,41.41,62.422,62.025c1.892,1.875,1.368,3.583,0.691,5.726c-2.661,8.424-3.084,17.041-1.083,25.635
		c6.121,26.284,31.928,42.669,57.684,36.765c26.595-6.098,43.082-31.902,37.067-58.017c-6.196-26.903-31.679-42.953-58.669-36.689
		c-3.613,0.838-5.806,0.1-8.311-2.432c-20.941-21.168-41.971-42.248-63.083-63.246c-2.505-2.493-3.119-4.602-2.325-8.236
		c7.844-35.962-22.02-66.126-57.924-58.545c-3.53,0.746-5.694,0.322-8.236-2.247c-21.835-22.067-43.77-44.035-65.808-65.897
		c-2.739-2.718-3.384-4.232-0.25-7.316c17.913-17.625,35.588-35.489,53.315-53.303c4.848-4.872,10.438-8.49,16.922-10.808
		c1.06-0.378,3.767,0.399,2.633-2.498C360.988,81,367.748,81,374.507,81z"/>
</g>
</svg>
