<?xml version="1.0" encoding="utf-8"?>
<!-- Generator: Adobe Illustrator 17.1.0, SVG Export Plug-In . SVG Version: 6.00 Build 0)  -->
<!DOCTYPE svg PUBLIC "-//W3C//DTD SVG 1.1//EN" "http://www.w3.org/Graphics/SVG/1.1/DTD/svg11.dtd">
<svg version="1.1" id="Warstwa_1" xmlns="http://www.w3.org/2000/svg" xmlns:xlink="http://www.w3.org/1999/xlink" x="0px" y="0px"
	 viewBox="0 0 86 86" enable-background="new 0 0 86 86" xml:space="preserve">
<g>
	<defs>
		<rect id="SVGID_9_" y="1" width="86" height="86"/>
	</defs>
	<clipPath id="SVGID_2_">
		<use xlink:href="#SVGID_9_"  overflow="visible"/>
	</clipPath>
	<path clip-path="url(#SVGID_2_)" fill="#D24D49" d="M52.3,80l0.7-12.2l2-3.5c0,0-4.6,1.9-12.4,1.9s-12.3-1.9-12.3-1.9l2.3,3.8
		L33.5,80c0,1.3,4.2,2.3,9.4,2.3S52.3,81.3,52.3,80 M50,22.8l1.5-6.1l8.6-9l-2.3-1.9l-9.1,9.6L47,22.7c-1.4,0-2.7-0.1-4.1-0.1
		c-9.6,0-17.3,1.1-17.3,2.4s7.8,2.4,17.3,2.4c9.6,0,17.3-1.1,17.3-2.4C60.2,24,56,23.2,50,22.8"/>
	<path clip-path="url(#SVGID_2_)" fill="#FFFFFF" d="M49.1,26.2c0,0-0.3,0.1-1.3,0.1c-1,0-1.7,0-2-0.3c-0.1-0.1-0.1-0.2-0.1-0.3
		c0-0.2,0.1-0.3,0.3-0.3l0.1,0.2c-0.1,0-0.1,0-0.1,0.1c0,0.1,1,0.2,1.8,0.2c0.8,0,1.7-0.1,1.7-0.2c0,0-0.1-0.1-0.2-0.1l0.1-0.2
		c0.2,0.1,0.4,0.2,0.4,0.4C49.9,26.1,49.4,26.2,49.1,26.2"/>
	<path clip-path="url(#SVGID_2_)" fill="#D24D49" d="M60.1,7.7c0.2-0.2-0.1-0.9-0.7-1.4c-0.6-0.5-1.3-0.8-1.5-0.5
		c-0.2,0.2,0.1,0.9,0.7,1.4C59.2,7.8,59.9,8,60.1,7.7 M51.9,50.1c-0.2-1.9,4.3-4.8,3.1-4.9c-2.5,0.1-3.7,2.9-5,5.8
		c-0.5,1.1-2,5.6-3,5c-1-0.6,1.3-4.3,2-6.5c-0.8,0.6-3.5,2.7-4.3,0.7c-1.2,1-3.6,1.5-3.3-1.1c-0.6,1.1-2,2.6-3.7,2
		c-2.2-0.8,1.3-7.7,2.1-7.4s-0.2,1.9-0.4,2.5c-0.6,1.3-1.3,3-0.8,3.4c0.8,0.6,2.9-2.2,3-2.3c0.4-0.5,1.5-3.9,2.4-3.6
		c0.9,0.4-2.3,4.9-1.1,5.8c0.2,0.2,1.2-0.1,1.8-0.8c0.4-0.4,0.3-1.3,1.5-4.4c1.3-3.1,2.4-6.9,3.3-6.6c0.9,0.3,0.2,2.3-0.2,3
		c-1.5,3.4-4.1,9.1-2.9,8.7c1.2-0.4,1.9-0.5,3-1.8c1.2-1.4,1.1-3.7,1.9-3.6c0.8,0,0.7,0.8,0.5,1.3c0.8-0.9,3.7-2.8,4.4-0.9
		c0.8,2.2-4.2,5.4-2.9,5.2c1.2-0.2,3.2-1.4,4-2.5l2.3-20.8c0,0-2.3,1.9-17.2,1.9c-14.9,0-17-1.9-17-1.9l2,19c1.1-3,3.5-9,7.5-8.8
		c1.8,0.1,4.2,3.5,2.1,3.6c-0.9,0-1-1.7-2-2c-0.7-0.2-1.8,0.4-2.4,1.1c-1.3,1.3-4.2,6.4-3.8,8.9c0.5,3.2,4.5-1.1,5.2-2.4
		c0.5-0.9,0.8-3.6,1.8-3.3c1,0.3-0.1,3.1-0.8,5.5c-0.9,2.8-1.3,5.7-2.4,5.4c-1.1-0.3,0.7-3.9,0.6-4.5c-1,0.9-2.9,3.3-5.2,2.1
		l1.2,11.8c0,0,3.3,2.6,13.1,2.6s13.2-2.5,13.2-2.5l1.5-13.7C56.1,50.4,52.2,52.5,51.9,50.1"/>
</g>
<rect fill="none" width="86" height="86"/>
</svg>
