<?xml version="1.0" encoding="utf-8"?>
<!-- Generator: Adobe Illustrator 16.0.0, SVG Export Plug-In . SVG Version: 6.00 Build 0)  -->
<!DOCTYPE svg PUBLIC "-//W3C//DTD SVG 1.1 Tiny//EN" "http://www.w3.org/Graphics/SVG/1.1/DTD/svg11-tiny.dtd">
<svg version="1.1" baseProfile="tiny" id="Layer_1" xmlns="http://www.w3.org/2000/svg" xmlns:xlink="http://www.w3.org/1999/xlink"
	 x="0px" y="0px" width="200.000px" height="200.00px" viewBox="0 0 730.063 833.57" overflow="scroll" xml:space="preserve">
<g>
	<path fill-rule="evenodd" fill="#D9B82D" d="M364.925,0.439c116.74,0,233.477,0.168,350.214-0.27
		c11.36-0.044,14.813,1.887,13.681,14.139c-12.642,136.984-24.656,274.03-36.892,411.053
		c-9.093,101.834-18.366,203.651-27.208,305.507c-0.684,7.872-3.465,11.12-10.954,13.194
		c-93.587,25.931-187.097,52.151-280.577,78.474c-6.121,1.724-11.621,1.48-17.676-0.231
		c-92.556-26.167-185.133-52.267-277.82-77.968c-8.133-2.254-11.023-5.7-11.754-14.071
		c-13.73-156.952-27.385-313.913-41.947-470.789C16.26,176.193,11.039,92.662,0.212,9.681C-1.495-3.4,7.475,0.567,13.318,0.559
		C130.521,0.398,247.722,0.439,364.925,0.439z"/>
	<path fill-rule="evenodd" fill="#FED73A" d="M365.184,415.737c0-111.132,0.24-222.266-0.297-333.394
		c-0.068-14.284,4.378-18.115,18.308-18.028c88.345,0.559,176.692,0.273,265.039,0.292c16.88,0.005,16.494,0.7,14.243,17.504
		c-3.188,23.777-4.742,47.776-6.945,71.685c-3.645,39.529-7.36,79.052-10.832,118.597c-2.181,24.854-3.744,49.764-5.99,74.61
		c-3.364,37.233-7.203,74.422-10.613,111.649c-2.235,24.389-3.933,48.824-6.113,73.214c-3.492,39.079-7.436,78.123-10.645,117.223
		c-0.98,11.978-2.66,24.034-2.74,35.892c-0.078,11.952-5.051,16.192-15.306,18.936c-44.237,11.83-88.357,24.091-132.511,36.24
		c-26.754,7.361-53.586,14.478-80.188,22.37c-11.83,3.51-15.789,1.65-15.721-12.001
		C365.424,638.928,365.184,527.332,365.184,415.737z"/>
	<path fill-rule="evenodd" fill="#EBEBEB" d="M336.573,403.8c0,75.824-0.256,151.65,0.264,227.468
		c0.082,11.948-2.89,13.676-13.859,10.541c-62.084-17.755-124.3-35.063-186.594-52.073c-8.42-2.301-12.438-5.292-12.095-14.813
		c0.736-20.441,0.584-40.936,0.063-61.39c-0.245-9.622,2.318-12.178,11.994-9.377c37.93,10.978,76.21,20.769,113.999,32.197
		c13.292,4.021,15.105,0.423,15.062-12.038c-0.426-116.292-0.02-232.587-0.578-348.877c-0.063-13.133,3.675-16.828,16.266-15.898
		c14.341,1.063,28.854,0.832,43.231,0.041c9.919-0.548,12.499,2.868,12.452,12.563C336.409,249.364,336.573,326.583,336.573,403.8z"
		/>
	<path fill-rule="evenodd" fill="#FEFEFE" d="M395.11,317.627c0-47.915,0.262-95.83-0.204-143.74
		c-0.102-10.434,2.104-14.451,13.668-14.355c68.843,0.559,137.692,0.373,206.539,0.15c8.462-0.03,12.41,0.742,10.96,11.351
		c-2.83,20.691-3.875,41.644-5.192,62.518c-0.579,9.196-4.185,12.329-13.771,12.209c-42.789-0.543-85.595,0.06-128.384-0.458
		c-10.143-0.123-13.7,2.269-13.481,13.076c0.705,34.877,0.51,69.776,0.101,104.661c-0.106,9.082,2.056,12.171,11.78,10.83
		c40.041-5.527,80.197-10.203,120.273-15.467c8.832-1.159,13.388-1.137,12.33,10.808c-5.862,66.196-10.719,132.48-15.903,198.736
		c-0.219,2.781-0.544,5.584-0.419,8.357c0.596,13.157-5.564,18.662-18.6,21.857c-55.494,13.592-110.711,28.331-165.89,43.176
		c-10.77,2.898-14.72,1.623-14.079-10.698c1.014-19.483,0.908-39.09,0.006-58.586c-0.467-10.089,3.44-13.672,12.563-15.983
		c38.729-9.818,77.221-20.576,115.968-30.316c9.08-2.281,13.12-5.624,13.03-15.654c-0.149-16.705,1.269-33.438,2.424-50.129
		c0.572-8.256-1.89-10.296-10.36-8.703c-39.728,7.457-79.72,13.553-119.316,21.602c-13.422,2.729-14.335-1.952-14.231-12.896
		C395.367,412.525,395.11,365.076,395.11,317.627z"/>
</g>
</svg>
